<?xml version="1.0" encoding="UTF-8" standalone="no"?>
<!-- Created with Inkscape (http://www.inkscape.org/) -->

<svg
   width="1024"
   height="512"
   viewBox="0 0 1024 512"
   version="1.1"
   id="svg1"
   xml:space="preserve"
   inkscape:version="1.4.2 (ebf0e940d0, 2025-05-08)"
   sodipodi:docname="cfait_featureGraphic_hardcoded.svg"
   inkscape:export-filename="cfait.png"
   inkscape:export-xdpi="96"
   inkscape:export-ydpi="96"
   xmlns:inkscape="http://www.inkscape.org/namespaces/inkscape"
   xmlns:sodipodi="http://sodipodi.sourceforge.net/DTD/sodipodi-0.dtd"
   xmlns:xlink="http://www.w3.org/1999/xlink"
   xmlns="http://www.w3.org/2000/svg"
   xmlns:svg="http://www.w3.org/2000/svg"
   xmlns:rdf="http://www.w3.org/1999/02/22-rdf-syntax-ns#"
   xmlns:cc="http://creativecommons.org/ns#"
   xmlns:dc="http://purl.org/dc/elements/1.1/"><sodipodi:namedview
     id="namedview1"
     pagecolor="#1e1e1e"
     bordercolor="#000000"
     borderopacity="0.25"
     inkscape:showpageshadow="2"
     inkscape:pageopacity="0.0"
     inkscape:pagecheckerboard="false"
     inkscape:deskcolor="#d1d1d1"
     inkscape:document-units="px"
     inkscape:zoom="0.92871094"
     inkscape:cx="416.70663"
     inkscape:cy="145.90116"
     inkscape:window-width="2272"
     inkscape:window-height="1747"
     inkscape:window-x="0"
     inkscape:window-y="0"
     inkscape:window-maximized="0"
     inkscape:current-layer="layer1"
     showgrid="false"><inkscape:grid
       id="grid66"
       units="px"
       originx="0"
       originy="0"
       spacingx="1"
       spacingy="1"
       empcolor="#0099e5"
       empopacity="0.30196078"
       color="#0099e5"
       opacity="0.14901961"
       empspacing="5"
       enabled="true"
       visible="false" /></sodipodi:namedview><defs
     id="defs1"><linearGradient
       id="swatch36"
       inkscape:swatch="solid"><stop
         style="stop-color:#000000;stop-opacity:1;"
         offset="0"
         id="stop37" /></linearGradient><linearGradient
       id="linearGradient23"
       inkscape:swatch="gradient"><stop
         style="stop-color:#cc3500;stop-opacity:1;"
         offset="0"
         id="stop23" /><stop
         style="stop-color:#cc3500;stop-opacity:0;"
         offset="1"
         id="stop24" /></linearGradient><linearGradient
       id="swatch74"
       inkscape:swatch="solid"><stop
         style="stop-color:#008000;stop-opacity:0.88726687;"
         offset="0"
         id="stop74" /></linearGradient><linearGradient
       id="linearGradient71"
       inkscape:collect="always"><stop
         style="stop-color:#ff6600;stop-opacity:1;"
         offset="0"
         id="stop71" /><stop
         style="stop-color:#ff6600;stop-opacity:0;"
         offset="1"
         id="stop72" /></linearGradient><linearGradient
       id="linearGradient69"
       inkscape:collect="always"><stop
         style="stop-color:#ffcc00;stop-opacity:1;"
         offset="0"
         id="stop69" /><stop
         style="stop-color:#ffcc00;stop-opacity:0;"
         offset="1"
         id="stop70" /></linearGradient><clipPath
       clipPathUnits="userSpaceOnUse"
       id="clipPath51"><path
         id="path51"
         style="stroke-width:0.0999999;stroke-linecap:square;paint-order:markers fill stroke;stop-color:#000000"
         d="m 1806.4991,-753.5228 h 1637.2646 v 66.90533 H 1806.4991 Z" /></clipPath><clipPath
       clipPathUnits="userSpaceOnUse"
       id="clipPath55"><path
         id="path55"
         style="stroke-width:0.1;stroke-linecap:square;paint-order:markers fill stroke;stop-color:#000000"
         d="m 1736.6147,-745.57287 h 1589.4765 v 72.46715 H 1736.6147 Z" /></clipPath><clipPath
       clipPathUnits="userSpaceOnUse"
       id="clipPath5"><rect
         style="fill:#000000;stroke:#000000;stroke-width:0;stroke-linejoin:bevel;paint-order:stroke markers fill;stop-color:#000000"
         id="rect5-4"
         width="20"
         height="200"
         x="530"
         y="595" /></clipPath><clipPath
       clipPathUnits="userSpaceOnUse"
       id="clipPath27"><rect
         style="fill:none;stroke:#000000;stroke-width:0.999999;stroke-linecap:butt;stroke-linejoin:bevel;paint-order:stroke markers fill;stop-color:#000000"
         id="rect28-6"
         width="46.160622"
         height="39.922417"
         x="86.574379"
         y="420.06253" /></clipPath><linearGradient
       id="i"
       y2="-0.2"
       gradientUnits="userSpaceOnUse"
       y1="12.17"
       x2="25.690001"
       x1="25.68"><stop
         stop-color="#fff"
         offset="0"
         id="stop1" /><stop
         stop-opacity="0"
         stop-color="#fff"
         offset="1"
         id="stop2" /></linearGradient><linearGradient
       id="e"
       x1="25.4"
       xlink:href="#b"
       gradientUnits="userSpaceOnUse"
       y1="3.8199999"
       gradientTransform="matrix(1,0,0,0.884,-0.63,0.84)"
       x2="25.459999"
       y2="9.3199997" /><linearGradient
       id="h"
       x1="33.400002"
       xlink:href="#i"
       gradientUnits="userSpaceOnUse"
       x2="34.200001"
       y1="36.919998"
       y2="38.099998" /><linearGradient
       id="f"
       xlink:href="#b"
       gradientUnits="userSpaceOnUse"
       y1="3.8199999"
       gradientTransform="matrix(0.539,0,0,0.512,10.8,-0.58)"
       x2="0"
       y2="6.48" /><linearGradient
       id="g"
       x1="26.1"
       xlink:href="#i"
       gradientUnits="userSpaceOnUse"
       x2="30.809999"
       y1="26.700001"
       y2="42" /><linearGradient
       id="j"
       y2="37.77"
       gradientUnits="userSpaceOnUse"
       y1="40.459999"
       x2="33.66"
       x1="36"><stop
         stop-color="#7c7c7c"
         offset="0"
         id="stop3" /><stop
         stop-color="#b8b8b8"
         offset="1"
         id="stop4" /></linearGradient><linearGradient
       id="b"><stop
         stop-color="#97978a"
         offset="0"
         id="stop5" /><stop
         stop-color="#c2c2b9"
         offset=".5"
         id="stop6" /><stop
         stop-color="#7d7d6f"
         offset="1"
         id="stop7" /></linearGradient><linearGradient
       id="n"
       y2="37.880001"
       gradientUnits="userSpaceOnUse"
       y1="10.45"
       x2="33.860001"
       x1="6.1100001"><stop
         stop-color="#c68827"
         offset="0"
         id="stop8" /><stop
         stop-color="#89601f"
         offset="1"
         id="stop9" /></linearGradient><linearGradient
       id="k"
       y2="42.099998"
       gradientUnits="userSpaceOnUse"
       y1="39.200001"
       x2="39.099998"
       x1="36.810001"><stop
         offset="0"
         id="stop10" /><stop
         stop-opacity="0"
         offset="1"
         id="stop11" /></linearGradient><linearGradient
       id="m"
       y2="39.5"
       gradientUnits="userSpaceOnUse"
       y1="18.99"
       gradientTransform="matrix(1.066,0,0,0.988,-1.56,0.07)"
       x2="35.790001"
       x1="22.309999"><stop
         stop-color="#f0f0ef"
         offset="0"
         id="stop12" /><stop
         stop-color="#e8e8e8"
         offset=".6"
         id="stop13" /><stop
         stop-color="#fff"
         offset=".83"
         id="stop14" /><stop
         stop-color="#d8d8d3"
         offset="1"
         id="stop15" /></linearGradient><linearGradient
       id="l"
       x1="25.4"
       xlink:href="#b"
       gradientUnits="userSpaceOnUse"
       y1="3.8199999"
       gradientTransform="matrix(1.053,0,0,1,-1.79,0)"
       x2="25.459999"
       y2="9.3199997" /><radialGradient
       id="d"
       gradientUnits="userSpaceOnUse"
       cy="45.299999"
       cx="24.65"
       gradientTransform="matrix(1,0,0,0.111,0,40.3)"
       r="21"><stop
         stop-color="#646459"
         offset="0"
         id="stop16" /><stop
         stop-opacity="0"
         stop-color="#646459"
         offset="1"
         id="stop17" /></radialGradient><linearGradient
       inkscape:collect="always"
       xlink:href="#linearGradient69"
       id="linearGradient70"
       x1="256.58682"
       y1="-181.96346"
       x2="256.58682"
       y2="327.51422"
       gradientUnits="userSpaceOnUse" /><linearGradient
       inkscape:collect="always"
       xlink:href="#linearGradient71"
       id="linearGradient72"
       x1="256.58682"
       y1="-181.96346"
       x2="256.58682"
       y2="327.51422"
       gradientUnits="userSpaceOnUse" /><radialGradient
       inkscape:collect="always"
       xlink:href="#b"
       id="radialGradient39"
       cx="-85.330971"
       cy="274.92209"
       fx="-85.330971"
       fy="274.92209"
       r="165.03281"
       gradientTransform="matrix(1,0,0,0.33346852,25.887098,159.64129)"
       gradientUnits="userSpaceOnUse" /></defs><g
     inkscape:label="Layer 1"
     inkscape:groupmode="layer"
     id="layer1"
     style="display:inline"
     transform="translate(256)"><rect
       style="display:inline;fill:#211e1e;fill-opacity:1;stroke:none;stroke-width:1.5;stroke-linecap:round;stroke-linejoin:round;paint-order:stroke markers fill"
       id="bg"
       width="1028"
       height="514"
       x="-258"
       y="-1" /><path
       d="m 230.43007,446.98081 h 3.43439 c 4.43859,7.69222 12.75342,12.85384 22.27329,12.85384 2.20926,0 4.37834,-0.28118 6.42692,-0.80337 v 0.80337 6.42692 38.56151 c 0,3.55489 -2.87203,6.42692 -6.42692,6.42692 -3.55489,0 -6.42692,-2.87203 -6.42692,-6.42692 v -28.27844 l -27.3144,21.85152 h 11.24711 c 3.55488,0 6.42692,2.87203 6.42692,6.42692 0,3.55489 -2.87204,6.42692 -6.42692,6.42692 H 204.7224 c -10.64458,0 -19.28075,-8.63617 -19.28075,-19.28075 v -44.88802 c 0,-3.23354 -2.4101,-5.98506 -5.62356,-6.38675 l -1.58664,-0.20084 c -3.53481,-0.42176 -6.02524,-3.63523 -5.60347,-7.17003 0.42176,-3.53481 3.6553,-6.02524 7.17003,-5.58338 l 1.58664,0.20083 c 9.64038,1.20505 16.89075,9.39937 16.89075,19.14017 v 17.13176 c 6.90894,-10.38349 18.7184,-17.23218 32.13459,-17.23218 z m 32.1346,5.3223 v 0 c -2.00841,0.70294 -4.1775,1.10462 -6.42692,1.10462 -5.70389,0 -10.84542,-2.49043 -14.38023,-6.42692 v 0 c -0.74311,-0.82345 -1.40589,-1.70715 -1.98833,-2.6511 -1.84774,-2.97245 -2.91219,-6.46709 -2.91219,-10.20274 v 0 -19.28075 -4.01682 -0.2611 c 0,-1.18496 0.94395,-2.12892 2.12891,-2.149 h 0.0402 c 0.66278,0 1.28539,0.32135 1.68707,0.84353 v 0.0201 l 2.57077,3.4143 5.46287,7.29054 0.96404,1.28538 h 12.85384 l 0.96404,-1.28538 5.46288,-7.29054 2.57077,-3.4143 v -0.0201 c 0.40168,-0.52218 1.02429,-0.84353 1.68707,-0.84353 h 0.0402 c 1.18496,0.0201 2.12891,0.96404 2.12891,2.149 v 0.2611 4.01682 19.28075 c 0,3.47456 -0.92387,6.74827 -2.5306,9.56005 -2.2695,3.97665 -5.9449,7.06961 -10.32324,8.61609 z m -9.64038,-18.17614 c 0,-1.7674 -1.44606,-3.21346 -3.21346,-3.21346 -1.7674,0 -3.21346,1.44606 -3.21346,3.21346 0,1.76741 1.44606,3.21346 3.21346,3.21346 1.7674,0 3.21346,-1.44605 3.21346,-3.21346 z m 9.64038,3.21346 c 1.76741,0 3.21346,-1.44605 3.21346,-3.21346 0,-1.7674 -1.44605,-3.21346 -3.21346,-3.21346 -1.7674,0 -3.21346,1.44606 -3.21346,3.21346 0,1.76741 1.44606,3.21346 3.21346,3.21346 z"
       id="path1-6"
       style="display:inline;fill:#000000;fill-opacity:0.75147;stroke:#ffffff;stroke-width:1.5;stroke-linecap:round;stroke-linejoin:round;stroke-dasharray:none;stroke-opacity:1;paint-order:stroke markers fill" /><g
       id="check"
       transform="matrix(9.6677949,0,0,9.6677949,54.642516,-107.69992)"
       style="display:inline;fill:#0e4d00;fill-opacity:1;stroke:#000000;stroke-width:8e-07;stroke-dasharray:none;stroke-opacity:0.606297"><path
         d="M 18,32.34 9.66,24 6.83,26.83 18,38 42,14 39.17,11.17 Z"
         id="path2-2"
         style="fill:#0e4d00;fill-opacity:1;stroke:#000000;stroke-width:8e-07;stroke-dasharray:none;stroke-opacity:0.606297" /></g><path
       sodipodi:type="star"
       style="fill:url(#linearGradient72);fill-opacity:1;stroke:#ffcc00;stroke-width:1.1e-07;stroke-linecap:butt;stroke-dasharray:none;stroke-opacity:0.606297"
       id="path66"
       inkscape:flatsided="true"
       sodipodi:sides="3"
       sodipodi:cx="256.58682"
       sodipodi:cy="-0.7613852"
       sodipodi:r1="294.14706"
       sodipodi:r2="147.07353"
       sodipodi:arg1="1.5707963"
       sodipodi:arg2="2.6179939"
       inkscape:rounded="0"
       inkscape:randomized="0"
       d="M 256.58683,293.38568 1.8479885,-147.83491 l 509.4776615,-1e-5 z"
       inkscape:transform-center-y="64.922046"
       transform="matrix(1.0012052,0,0,0.88285137,-0.896057,130.51627)"
       inkscape:transform-center-x="-1.2532309e-06" /><path
       sodipodi:type="star"
       style="display:inline;fill:url(#linearGradient70);fill-opacity:1;stroke:#ffcc00;stroke-width:1.1e-07;stroke-linecap:butt;stroke-dasharray:none;stroke-opacity:0.606297"
       id="path66-1"
       inkscape:flatsided="true"
       sodipodi:sides="3"
       sodipodi:cx="256.58682"
       sodipodi:cy="-0.7613852"
       sodipodi:r1="294.14706"
       sodipodi:r2="147.07353"
       sodipodi:arg1="1.5707963"
       sodipodi:arg2="2.6179939"
       inkscape:rounded="0"
       inkscape:randomized="0"
       d="M 256.58683,293.38568 1.8479885,-147.83491 l 509.4776615,-1e-5 z"
       inkscape:transform-center-y="64.922046"
       transform="matrix(0.87089583,0,0,0.88285137,32.53961,130.51627)"
       inkscape:transform-center-x="-1.9082339e-06" /><path
       d="m -194.53986,310.92681 q -25.8134,0 -39.16009,-13.20003 -13.20003,-13.20003 -13.20003,-39.01342 0,-25.81339 13.20003,-39.01343 13.34669,-13.20003 39.16009,-13.20003 22.44005,0 35.49341,11.29336 13.05337,11.1467 13.05337,31.97341 h -30.94674 q 0,-8.80002 -4.69335,-13.93336 -4.54667,-5.13335 -13.05336,-5.13335 -9.82669,0 -14.52003,6.16001 -4.54668,6.16002 -4.54668,17.16004 v 9.38669 q 0,10.85336 4.54668,17.16004 4.69334,6.16002 14.2267,6.16002 9.38668,0 14.2267,-4.84001 4.84001,-4.84002 4.84001,-13.64004 h 29.92007 q 0,20.68005 -12.76003,31.68008 -12.61337,11.00002 -35.78675,11.00002 z m 67.17347,-59.40013 h -10.85336 v -19.80005 h 10.85336 v -3.22668 q 0,-14.96003 7.33335,-21.12004 7.33335,-6.30669 20.973378,-6.30669 3.226674,0 8.066685,0.88001 4.840011,0.73333 7.773352,1.76 v 17.16004 h -6.746683 q -4.693344,0 -6.453348,1.76 -1.760004,1.76001 -1.760004,6.01335 v 3.08001 h 14.960035 v 19.80005 H -98.17966 v 57.64013 h -29.18673 z m 75.240128,59.40013 q -27.280063,0 -27.280063,-21.70671 0,-11.29336 6.013347,-17.16004 6.160014,-6.01335 17.600041,-8.21336 11.440027,-2.2 29.920069,-2.2 v -3.81334 q 0,-4.54668 -3.226674,-6.89335 -3.080007,-2.34667 -8.066685,-2.34667 -4.546677,0 -7.920018,1.61333 -3.226675,1.61334 -3.226675,5.13335 v 0.58667 h -28.746733 q -0.146667,-0.73334 -0.146667,-2.05334 0,-11.00003 10.413357,-17.45338 10.560025,-6.45334 30.066737,-6.45334 17.746708,0 28.8934004,6.01334 11.1466926,5.86668 11.1466926,19.21338 v 30.2134 q 0,2.49334 1.173336,4.10668 1.1733361,1.61334 3.5200082,1.61334 h 5.2800118 v 16.8667 q -2.053338,1.17334 -6.1600138,2.05334 -4.1066762,0.88 -9.0933545,0.88 -8.6533537,0 -14.2266997,-2.49334 -5.426679,-2.64 -6.893349,-7.18668 h -1.026669 q -11.000026,9.68002 -28.013399,9.68002 z m 11.880028,-18.18671 q 5.720013,0 9.973356,-3.08 4.40001,-3.08001 4.40001,-7.62669 v -6.60001 q -12.466695,0 -18.480042,2.78667 -5.866681,2.64001 -5.866681,7.18668 0,7.33335 9.973357,7.33335 z m 64.093462,-89.90687 h 29.186734 v 20.38671 H 23.847228 Z m 0,28.8934 h 29.186734 v 77.44018 H 23.847228 Z m 80.666862,79.20018 q -12.9067,0 -19.946716,-4.69334 -6.89335,-4.69335 -6.89335,-15.9867 V 251.52668 H 66.820666 v -19.80005 h 12.026695 l 6.306681,-23.46672 h 21.706718 v 23.46672 h 16.4267 v 19.80005 h -16.4267 v 29.48006 q 0,5.28002 1.76,7.77336 1.76001,2.34667 6.45335,2.34667 h 8.21335 v 17.16004 q -3.52,1.17333 -9.09335,1.90667 -5.57335,0.73333 -9.68002,0.73333 z"
       id="text1"
       style="font-size:146.667px;line-height:1;font-family:'Archivo Black';-inkscape-font-specification:'Archivo Black, Normal';text-align:justify;fill:#fff0f0;stroke:#211e1e;stroke-linecap:round;stroke-linejoin:round;paint-order:stroke markers fill"
       aria-label="Cfait" /><g
       id="text5"
       style="font-size:48px;line-height:1;font-family:'ShureTechMono Nerd Font';-inkscape-font-specification:'ShureTechMono Nerd Font, Normal';text-align:justify;fill:#ff2000;fill-opacity:0.698706;stroke:#000000;stroke-width:3;stroke-linecap:round;stroke-linejoin:round;paint-order:stroke fill markers"
       aria-label="Take control&#10;of your TODO list"><path
         d="m 315.0091,416.51599 v -29.952 h -7.632 v -3.648 h 19.44 v 3.648 h -7.632 v 29.952 z m 35.08805,0 q -0.624,0 -1.392,-0.384 -0.72,-0.384 -1.248,-1.056 -1.104,1.44 -2.928,1.44 h -4.272 q -3.648,0 -5.328,-1.44 -1.632,-1.488 -1.632,-5.04 v -0.96 q 0,-7.44 7.008,-7.44 h 5.952 v -2.4 q 0,-1.488 -0.912,-2.304 -0.912,-0.816 -2.688,-0.816 h -7.44 v -3.6 h 6.96 q 4.176,0 6.144,1.824 2.016,1.824 2.016,5.856 v 11.52 q 0,0.72 0.528,1.104 0.576,0.336 1.872,0.336 v 3.36 z m -6.048,-3.6 q 1.44,0 1.824,-0.672 0.384,-0.672 0.384,-1.728 v -5.28 h -6 q -1.248,0 -2.064,0.816 -0.816,0.816 -0.816,2.064 v 2.4 q 0,1.248 0.576,1.824 0.576,0.576 1.824,0.576 z m 20.64004,-6.672 v 10.272 h -4.08 v -33.6 h 4.08 v 18.144 l 7.536,-8.544 h 5.136 l -8.352,9.456 9.024,14.544 h -5.04 l -7.056,-11.712 z m 29.90404,10.272 q -4.224,0 -6.192,-1.776 -1.968,-1.824 -1.968,-5.904 v -8.64 q 0,-4.128 1.776,-5.904 1.776,-1.776 5.904,-1.776 h 2.256 q 3.408,0 5.136,1.92 1.776,1.872 1.776,5.52 v 6.24 h -12.768 v 3.6 q 0,1.488 0.912,2.304 0.912,0.816 2.688,0.816 h 7.632 v 3.6 z m 4.704,-17.52 q 0,-1.248 -0.816,-2.064 -0.816,-0.816 -2.064,-0.816 h -2.784 q -1.728,0 -2.448,0.816 -0.672,0.768 -0.672,2.304 v 3.36 h 8.784 z"
         id="path1" /><path
         style="font-size:53.3333px;fill-opacity:0.896017"
         d="m 449.22798,416.51599 q -4.69333,0 -6.88,-1.97333 -2.18666,-2.02667 -2.18666,-6.56 v -9.59999 q 0,-4.48 2.18666,-6.50666 2.24,-2.02667 6.88,-2.02667 h 6.88 v 4 h -7.41333 q -1.97334,0 -2.98667,0.90666 -1.01333,0.90667 -1.01333,2.56 v 11.73333 q 0,1.65333 1.01333,2.56 1.01333,0.90666 2.98667,0.90666 h 7.41333 v 4 z m 37.65336,-8.53333 q 0,4.48 -2.24,6.50667 -2.18666,2.02666 -6.82666,2.02666 h -1.76 q -4.64,0 -6.88,-2.02666 -2.18666,-2.02667 -2.18666,-6.50667 v -9.59999 q 0,-4.48 2.18666,-6.50666 2.24,-2.02667 6.88,-2.02667 h 1.76 q 4.64,0 6.82666,2.02667 2.24,2.02666 2.24,6.50666 z M 482.34801,397.316 q 0,-1.65333 -1.01333,-2.56 -1.01333,-0.90666 -2.98667,-0.90666 h -2.82666 q -1.97333,0 -2.98667,0.90666 -1.01333,0.90667 -1.01333,2.56 v 11.73333 q 0,1.65333 1.01333,2.56 1.01334,0.90666 2.98667,0.90666 h 2.82666 q 1.97334,0 2.98667,-0.90666 1.01333,-0.90667 1.01333,-2.56 z m 17.92004,-7.46666 v 1.28 q 1.65333,-1.28 4.26666,-1.28 h 2.45334 q 4.31999,0 6.39999,2.02667 2.13333,2.02666 2.13333,6.50666 v 18.13332 h -4.53333 V 397.316 q 0,-1.6 -0.96,-2.50666 -0.90666,-0.96 -2.50666,-0.96 h -3.52 q -1.76,0 -2.61333,0.96 -0.85333,0.90666 -0.85333,1.97333 v 19.73332 h -4.53333 v -26.66665 z m 36.2667,26.66665 q -2.72,0 -4.16,-1.76 -1.44,-1.76 -1.44,-4.63999 v -16.26666 h -5.06666 v -4 h 5.06666 v -6.4 h 4.53333 v 6.4 h 7.78666 v 4 h -7.78666 v 16.53332 q 0,1.17333 0.58667,1.65333 0.58666,0.48 1.81333,0.48 h 5.38666 v 4 z m 21.65337,-4 v -18.66665 h -3.89333 v -4 h 8.15999 v 1.44 q 1.76,-1.44 4.26667,-1.44 h 5.49333 v 4.26666 h -6.02667 q -1.70666,0 -2.56,1.12 -0.85333,1.06667 -0.90666,2.18667 v 15.09332 h 5.81333 v 4 h -14.23999 v -4 z m 43.89334,-4.53333 q 0,4.48 -2.24,6.50667 -2.18666,2.02666 -6.82666,2.02666 h -1.76 q -4.64,0 -6.88,-2.02666 -2.18666,-2.02667 -2.18666,-6.50667 v -9.59999 q 0,-4.48 2.18666,-6.50666 2.24,-2.02667 6.88,-2.02667 h 1.76 q 4.64,0 6.82666,2.02667 2.24,2.02666 2.24,6.50666 z M 597.54813,397.316 q 0,-1.65333 -1.01333,-2.56 -1.01334,-0.90666 -2.98667,-0.90666 h -2.82666 q -1.97334,0 -2.98667,0.90666 -1.01333,0.90667 -1.01333,2.56 v 11.73333 q 0,1.65333 1.01333,2.56 1.01333,0.90666 2.98667,0.90666 h 2.82666 q 1.97333,0 2.98667,-0.90666 1.01333,-0.90667 1.01333,-2.56 z m 25.12005,19.19999 q -1.81333,0 -3.2,-1.28 -1.33333,-1.28 -1.33333,-4.05333 v -27.99998 h -7.84 v -4 h 12.37333 v 31.73331 q 0,0.85334 0.42667,1.22667 0.42666,0.37333 1.44,0.37333 h 7.09333 v 4 z"
         id="path2" /><path
         d="m 326.0491,457.98121 q 0,4.032 -2.016,5.856 -1.968,1.824 -6.144,1.824 h -1.584 q -4.176,0 -6.192,-1.824 -1.968,-1.824 -1.968,-5.856 v -8.64 q 0,-4.032 1.968,-5.856 2.016,-1.824 6.192,-1.824 h 1.584 q 4.176,0 6.144,1.824 2.016,1.824 2.016,5.856 z m -4.08,-9.6 q 0,-1.488 -0.912,-2.304 -0.912,-0.816 -2.688,-0.816 h -2.544 q -1.776,0 -2.688,0.816 -0.912,0.816 -0.912,2.304 v 10.56 q 0,1.488 0.912,2.304 0.912,0.816 2.688,0.816 h 2.544 q 1.776,0 2.688,-0.816 0.912,-0.816 0.912,-2.304 z m 22.70405,-12.72 q -0.768,0 -1.248,0.432 -0.432,0.384 -0.432,1.008 v 4.56 h 7.728 v 3.6 h -7.728 v 16.8 h 5.808 v 3.6 h -13.968 v -3.6 h 4.08 v -16.8 h -4.08 v -3.6 h 4.08 v -4.32 q 0,-2.448 1.392,-3.84 1.392,-1.44 3.6,-1.44 h 7.296 v 3.6 z m 45.88808,34.56 q 1.152,0 1.728,-0.432 0.576,-0.432 0.864,-1.488 l 0.672,-2.64 h -0.96 l -7.92,-24 h 4.416 l 6,20.112 5.232,-20.112 h 4.176 l -7.44,26.592 q -0.624,2.448 -1.536,3.648 -0.912,1.2 -2.064,1.536 -1.104,0.384 -2.88,0.384 h -2.304 v -3.6 z m 39.16805,-12.24 q 0,4.032 -2.016,5.856 -1.968,1.824 -6.144,1.824 h -1.584 q -4.176,0 -6.192,-1.824 -1.968,-1.824 -1.968,-5.856 v -8.64 q 0,-4.032 1.968,-5.856 2.016,-1.824 6.192,-1.824 h 1.584 q 4.176,0 6.144,1.824 2.016,1.824 2.016,5.856 z m -4.08,-9.6 q 0,-1.488 -0.912,-2.304 -0.912,-0.816 -2.688,-0.816 h -2.544 q -1.776,0 -2.688,0.816 -0.912,0.816 -0.912,2.304 v 10.56 q 0,1.488 0.912,2.304 0.912,0.816 2.688,0.816 h 2.544 q 1.776,0 2.688,-0.816 0.912,-0.816 0.912,-2.304 z m 25.72804,16.176 q -1.584,1.104 -3.84,1.104 h -1.632 q -3.888,0 -5.808,-1.824 -1.872,-1.824 -1.872,-5.856 v -16.32 h 4.08 v 17.28 q 0,1.44 0.816,2.304 0.864,0.816 2.304,0.816 h 2.592 q 1.536,0 2.256,-0.768 0.768,-0.768 0.864,-1.728 v -17.904 h 4.08 v 24 h -3.84 z m 16.60805,-2.496 v -16.8 h -3.504 v -3.6 h 7.344 v 1.296 q 1.584,-1.296 3.84,-1.296 h 4.944 v 3.84 h -5.424 q -1.536,0 -2.304,1.008 -0.768,0.96 -0.816,1.968 v 13.584 h 5.232 v 3.6 h -12.816 v -3.6 z m 54.38408,3.6 v -29.952 h -7.632 v -3.648 h 19.44 v 3.648 h -7.632 v 29.952 z m 37.63205,-8.16 q 0,4.08 -2.256,6.144 -2.208,2.016 -6.384,2.016 h -1.92 q -4.176,0 -6.432,-2.016 -2.208,-2.064 -2.208,-6.144 v -17.28 q 0,-4.08 2.208,-6.096 2.256,-2.064 6.432,-2.064 h 1.92 q 4.176,0 6.384,2.064 2.256,2.016 2.256,6.096 z m -4.176,-18.192 q 0,-1.488 -1.104,-2.544 -1.104,-1.056 -2.88,-1.056 h -2.88 q -1.776,0 -2.88,1.056 -1.104,1.056 -1.104,2.544 v 19.104 q 0,1.488 1.104,2.544 1.104,1.056 2.88,1.056 h 2.88 q 1.776,0 2.88,-1.056 1.104,-1.056 1.104,-2.544 z m 29.52004,18.768 q 0,4.128 -1.92,5.856 -1.872,1.728 -6.24,1.728 h -9.888 v -33.6 h 9.312 q 4.32,0 6.528,1.776 2.208,1.728 2.208,5.712 z m -4.176,-18.96 q 0,-1.584 -0.96,-2.496 -0.96,-0.96 -2.544,-0.96 h -6.192 v 26.4 h 6.144 q 1.824,0 2.688,-0.816 0.864,-0.864 0.864,-2.688 z m 30.67205,18.384 q 0,4.08 -2.256,6.144 -2.208,2.016 -6.384,2.016 h -1.92 q -4.176,0 -6.432,-2.016 -2.208,-2.064 -2.208,-6.144 v -17.28 q 0,-4.08 2.208,-6.096 2.256,-2.064 6.432,-2.064 h 1.92 q 4.176,0 6.384,2.064 2.256,2.016 2.256,6.096 z m -4.176,-18.192 q 0,-1.488 -1.104,-2.544 -1.104,-1.056 -2.88,-1.056 h -2.88 q -1.776,0 -2.88,1.056 -1.104,1.056 -1.104,2.544 v 19.104 q 0,1.488 1.104,2.544 1.104,1.056 2.88,1.056 h 2.88 q 1.776,0 2.88,-1.056 1.104,-1.056 1.104,-2.544 z m 47.95208,26.352 q -1.632,0 -2.88,-1.152 -1.2,-1.152 -1.2,-3.648 v -25.2 h -7.056 v -3.6 h 11.136 v 28.56 q 0,0.768 0.384,1.104 0.384,0.336 1.296,0.336 h 6.384 v 3.6 z m 26.64005,-33.6 v 4.32 h -4.56 v -4.32 z m -11.376,13.2 v -3.6 h 11.136 v 20.4 h 7.104 v 3.6 h -11.184 v -20.4 z m 42.33604,14.4 q 0,3.024 -1.872,4.512 -1.824,1.488 -5.328,1.488 h -7.152 v -3.6 h 7.632 q 1.296,0 1.968,-0.528 0.672,-0.576 0.672,-1.632 v -2.544 q 0,-2.16 -2.064,-2.16 h -1.776 q -3.36,0 -5.04,-1.44 -1.632,-1.488 -1.632,-4.656 v -1.392 q 0,-3.216 1.824,-4.608 1.824,-1.44 5.376,-1.44 h 6.432 v 3.6 h -6.912 q -1.2,0 -1.92,0.576 -0.72,0.528 -0.72,1.584 v 1.728 q 0,1.104 0.624,1.632 0.672,0.528 1.68,0.528 h 1.632 q 3.216,0 4.896,1.584 1.68,1.536 1.68,4.608 z m 20.40005,6 q -2.448,0 -3.744,-1.584 -1.296,-1.584 -1.296,-4.176 v -14.64 h -4.56 v -3.6 h 4.56 v -5.76 h 4.08 v 5.76 h 7.008 v 3.6 h -7.008 v 14.88 q 0,1.056 0.528,1.488 0.528,0.432 1.632,0.432 h 4.848 v 3.6 z"
         id="path3" /></g></g><metadata
     id="metadata1"><rdf:RDF><cc:License
         rdf:about="http://creativecommons.org/licenses/by/4.0/"><cc:permits
           rdf:resource="http://creativecommons.org/ns#Reproduction" /><cc:permits
           rdf:resource="http://creativecommons.org/ns#Distribution" /><cc:requires
           rdf:resource="http://creativecommons.org/ns#Notice" /><cc:requires
           rdf:resource="http://creativecommons.org/ns#Attribution" /><cc:permits
           rdf:resource="http://creativecommons.org/ns#DerivativeWorks" /></cc:License><cc:Work
         rdf:about=""><cc:license
           rdf:resource="http://creativecommons.org/licenses/by/4.0/" /><dc:creator><cc:Agent><dc:title>Benoit Brummer</dc:title></cc:Agent></dc:creator></cc:Work></rdf:RDF></metadata></svg>
