<?xml version="1.0" encoding="UTF-8" standalone="no"?>
<svg
   width="168"
   height="64"
   viewBox="0 0 168 64"
   fill="currentColor"
   version="1.1"
   id="svg3"
   sodipodi:docname="nf-cod-question+face-hugs_#66B3FF.svg"
   xml:space="preserve"
   inkscape:version="1.4.2 (ebf0e940d0, 2025-05-08)"
   xmlns:inkscape="http://www.inkscape.org/namespaces/inkscape"
   xmlns:sodipodi="http://sodipodi.sourceforge.net/DTD/sodipodi-0.dtd"
   xmlns="http://www.w3.org/2000/svg"
   xmlns:svg="http://www.w3.org/2000/svg"><defs
     id="defs3" /><sodipodi:namedview
     id="namedview3"
     pagecolor="#ffffff"
     bordercolor="#000000"
     borderopacity="0.25"
     inkscape:showpageshadow="2"
     inkscape:pageopacity="0.0"
     inkscape:pagecheckerboard="0"
     inkscape:deskcolor="#d1d1d1"
     inkscape:zoom="5.2535824"
     inkscape:cx="45.207248"
     inkscape:cy="95.744192"
     inkscape:window-width="3840"
     inkscape:window-height="2088"
     inkscape:window-x="0"
     inkscape:window-y="0"
     inkscape:window-maximized="1"
     inkscape:current-layer="layer1" /><path
     d="m 84,43.926926 c 1.659526,0 3.004864,1.345377 3.004864,3.004863 0,1.659487 -1.345338,3.004864 -3.004864,3.004864 -1.659526,0 -3.004864,-1.345377 -3.004864,-3.004864 0,-1.659486 1.345338,-3.004863 3.004864,-3.004863 z"
     id="path1"
     style="fill:#66b3ff;fill-opacity:1;stroke-width:4.00649" /><path
     d="m 84,15.881524 c 5.056184,0 9.014592,3.958408 9.014592,9.014593 0,4.339024 -2.269594,6.604772 -4.092545,8.427722 -1.634647,1.630641 -2.918805,2.918645 -2.918805,5.594978 0,1.105789 -0.897453,2.003244 -2.003242,2.003244 -1.105791,0 -2.003243,-0.897455 -2.003243,-2.003244 0,-4.339024 2.269594,-6.604771 4.092545,-8.427723 1.634646,-1.63064 2.918805,-2.918645 2.918805,-5.594977 0,-2.852618 -2.15549,-5.008107 -5.008107,-5.008107 -2.852618,0 -5.008107,2.155489 -5.008107,5.008107 0,1.10579 -0.897452,2.003243 -2.003242,2.003243 -1.10579,0 -2.003243,-0.897453 -2.003243,-2.003243 0,-5.056185 3.958407,-9.014593 9.014592,-9.014593 z"
     id="path2"
     style="fill:#66b3ff;fill-opacity:1;stroke-width:4.00649" /><g
     inkscape:label="Capa 1"
     id="layer1"
     transform="matrix(3.3445596,0,0,3.3445596,-0.88491358,-975.61956)"><path
       inkscape:connector-curvature="0"
       style="fill:#8f5315;stroke-width:4.00649"
       id="path4280"
       d="m 18.256437,302.97753 c 3.913859,3.29254 -2.831325,3.93887 -0.501038,4.65843 2.650123,0 3.710183,-1.24197 3.710172,-2.12016 -4e-6,-0.35697 -2.120099,-3.18006 -3.209134,-2.53827 z" /><path
       inkscape:connector-curvature="0"
       style="display:inline;fill:#8f5315;stroke-width:4.01286"
       id="path4280-6"
       d="m 32.474959,302.97577 c -3.920079,3.29777 2.835826,3.94513 0.501836,4.66583 -2.654337,0 -3.716082,-1.24394 -3.716071,-2.12351 5e-6,-0.35755 2.123469,-3.18513 3.214235,-2.54232 z" /><path
       fill-rule="evenodd"
       clip-rule="evenodd"
       d="m 25.379997,292.85817 c 4.623937,0 8.385379,3.76145 8.385379,8.38537 0,4.62394 -3.761442,8.38539 -8.385379,8.38539 -4.623938,0 -8.385379,-3.76145 -8.385379,-8.38539 0,-4.62392 3.761441,-8.38537 8.385379,-8.38537 z m 0,1.19791 c -3.963888,0 -7.187468,3.22358 -7.187468,7.18746 0,3.96389 3.22358,7.18747 7.187468,7.18747 3.963888,0 7.187468,-3.22358 7.187468,-7.18747 0,-3.96388 -3.22358,-7.18746 -7.187468,-7.18746 z"
       id="path3"
       style="fill:#66b3ff;fill-opacity:1;stroke-width:1.19791" /><rect
       width="20.140924"
       x="0.26458299"
       y="291.7352"
       rx="8.4803324"
       height="19.080936"
       style="fill:#fdd583;stroke-width:4.00649"
       id="rect4152" /><rect
       width="20.172935"
       x="-50.495411"
       y="291.71558"
       rx="8.4938116"
       height="19.111265"
       style="display:inline;fill:#fdd583;stroke-width:4.01286"
       id="rect4152-7"
       transform="scale(-1,1)" /><path
       inkscape:connector-curvature="0"
       style="fill:#8f5315;stroke-width:4.00649"
       id="path4233"
       d="m 9.2058515,301.27566 a 3.3587098,4.5935051 0 0 0 2.8257095,2.12003 3.3587098,4.5935051 0 0 0 2.828993,-2.12003 h -0.329656 a 3.3587092,4.240176 0 0 1 -2.499353,1.41337 3.3587092,4.240176 0 0 1 -2.4977131,-1.41337 H 9.2058455 Z" /><path
       inkscape:connector-curvature="0"
       style="display:inline;fill:#8f5315;stroke-width:4.01286"
       id="path4233-5"
       d="m 41.53993,301.2712 a 3.3640482,4.6008061 0 0 1 -2.830201,2.12339 3.3640482,4.6008061 0 0 1 -2.83349,-2.12339 h 0.330181 a 3.3640476,4.2469153 0 0 0 2.503326,1.41561 3.3640476,4.2469153 0 0 0 2.501682,-1.41561 h 0.328508 z" /><path
       inkscape:connector-curvature="0"
       style="fill:#8f5315;stroke-width:4.00649"
       id="path4184"
       d="m 7.1549033,297.0354 a 1.5900741,1.5900741 0 0 0 -1.5900738,1.59009 1.5900741,1.5900741 0 0 0 0.093167,0.53002 1.5900741,1.5900741 0 0 1 1.4969055,-1.06008 1.5900741,1.5900741 0 0 1 1.4969056,1.06008 1.5900741,1.5900741 0 0 0 0.093167,-0.53002 1.5900741,1.5900741 0 0 0 -1.5900713,-1.59009 z" /><path
       inkscape:connector-curvature="0"
       style="display:inline;fill:#8f5315;stroke-width:4.01286"
       id="path4184-3"
       d="m 43.594137,297.02419 a 1.5926013,1.5926013 0 0 1 1.592601,1.59262 1.5926013,1.5926013 0 0 1 -0.09331,0.53087 1.5926013,1.5926013 0 0 0 -1.499285,-1.06177 1.5926013,1.5926013 0 0 0 -1.499284,1.06177 1.5926013,1.5926013 0 0 1 -0.09331,-0.53087 1.5926013,1.5926013 0 0 1 1.592597,-1.59262 z" /><path
       inkscape:connector-curvature="0"
       style="fill:#8f5315;stroke-width:4.00649"
       id="path4231"
       d="m 16.69535,297.03544 a 1.5900741,1.5900741 0 0 0 -1.590075,1.59005 1.5900741,1.5900741 0 0 0 0.09316,0.53002 1.5900741,1.5900741 0 0 1 1.496905,-1.06004 1.5900741,1.5900741 0 0 1 1.496905,1.06004 1.5900741,1.5900741 0 0 0 0.09316,-0.53002 1.5900741,1.5900741 0 0 0 -1.59007,-1.59005 z" /><path
       inkscape:connector-curvature="0"
       style="display:inline;fill:#8f5315;stroke-width:4.01286"
       id="path4231-5"
       d="m 34.038528,297.02423 a 1.5926013,1.5926013 0 0 1 1.592602,1.59258 1.5926013,1.5926013 0 0 1 -0.09331,0.53087 1.5926013,1.5926013 0 0 0 -1.499284,-1.06173 1.5926013,1.5926013 0 0 0 -1.499285,1.06173 1.5926013,1.5926013 0 0 1 -0.09331,-0.53087 1.5926013,1.5926013 0 0 1 1.592596,-1.59258 z" /><path
       inkscape:connector-curvature="0"
       style="fill:#8f5315;stroke-width:4.00649"
       id="path4249"
       d="m 5.5358445,302.97753 c 3.9138576,3.29254 -2.8313252,3.93887 -0.5010391,4.65843 2.6501236,0 3.7101836,-1.24197 3.7101728,-2.12016 -4.4e-6,-0.35697 -2.1200983,-3.18006 -3.2091337,-2.53827 z" /><path
       inkscape:connector-curvature="0"
       style="display:inline;fill:#8f5315;stroke-width:4.01286"
       id="path4249-6"
       d="m 45.21577,302.97577 c -3.920079,3.29777 2.835826,3.94513 0.501836,4.66583 -2.654337,0 -3.716081,-1.24394 -3.71607,-2.12351 4e-6,-0.35755 2.123467,-3.18513 3.214234,-2.54232 z" /></g></svg>
