<?xml version="1.0" encoding="UTF-8" standalone="no"?>
<svg
   width="168"
   height="64"
   viewBox="0 0 168 64"
   fill="currentColor"
   version="1.1"
   id="svg3"
   sodipodi:docname="nf-md-robot_confused+breeze-face-hugs.svg"
   xml:space="preserve"
   inkscape:version="1.4.2 (ebf0e940d0, 2025-05-08)"
   xmlns:inkscape="http://www.inkscape.org/namespaces/inkscape"
   xmlns:sodipodi="http://sodipodi.sourceforge.net/DTD/sodipodi-0.dtd"
   xmlns="http://www.w3.org/2000/svg"
   xmlns:svg="http://www.w3.org/2000/svg"><defs
     id="defs3" /><sodipodi:namedview
     id="namedview3"
     pagecolor="#ffffff"
     bordercolor="#000000"
     borderopacity="0.25"
     inkscape:showpageshadow="2"
     inkscape:pageopacity="0.0"
     inkscape:pagecheckerboard="0"
     inkscape:deskcolor="#d1d1d1"
     inkscape:zoom="8"
     inkscape:cx="41.8125"
     inkscape:cy="16.25"
     inkscape:window-width="3840"
     inkscape:window-height="2088"
     inkscape:window-x="0"
     inkscape:window-y="0"
     inkscape:window-maximized="1"
     inkscape:current-layer="layer1" /><g
     inkscape:label="Capa 1"
     id="layer1"
     transform="matrix(3.3445596,0,0,3.3445596,-0.88491358,-975.61956)"><path
       inkscape:connector-curvature="0"
       style="fill:#8f5315;stroke-width:4.00649"
       id="path4280"
       d="m 18.256437,302.97753 c 3.913859,3.29254 -2.831325,3.93887 -0.501038,4.65843 2.650123,0 3.710183,-1.24197 3.710172,-2.12016 -4e-6,-0.35697 -2.120099,-3.18006 -3.209134,-2.53827 z" /><path
       inkscape:connector-curvature="0"
       style="display:inline;fill:#8f5315;stroke-width:4.01286"
       id="path4280-6"
       d="m 32.474959,302.97577 c -3.920079,3.29777 2.835826,3.94513 0.501836,4.66583 -2.654337,0 -3.716082,-1.24394 -3.716071,-2.12351 5e-6,-0.35755 2.123469,-3.18513 3.214235,-2.54232 z" /><path
       d="m 29.758607,300.79151 h -1.116063 v -0.55803 h 1.395077 c 0.156253,0 0.279016,0.12281 0.279016,0.27902 v 1.11606 c 0,0.15621 -0.122769,0.27901 -0.279016,0.27901 h -0.279014 v 0.55802 h -0.55803 v -1.11604 h 0.55803 v -0.55804 m -0.55803,2.79017 h 0.55803 v -0.55804 h -0.55803 v 0.55804 m -1.116063,-3.3482 h -0.558032 v 2.23211 h 0.558032 v -2.23211 m 3.348186,6.69639 v 1.67409 c 0,0.30691 -0.251114,0.55803 -0.55803,0.55803 h -0.558033 v 0.55802 c 0,0.6194 -0.496648,1.11607 -1.11606,1.11607 h -7.812436 c -0.613835,0 -1.116063,-0.49667 -1.116063,-1.11607 v -0.55802 h -0.558032 c -0.306917,0 -0.558031,-0.25112 -0.558031,-0.55803 v -1.67409 c 0,-0.30693 0.251114,-0.55804 0.558031,-0.55804 h 0.558032 c 0,-2.15958 1.746638,-3.90624 3.906218,-3.90624 h 0.558032 v -0.70868 c -0.33482,-0.18974 -0.558032,-0.55246 -0.558032,-0.9654 0,-0.61383 0.502228,-1.11606 1.116063,-1.11606 0.613833,0 1.116063,0.50223 1.116063,1.11606 0,0.41294 -0.223213,0.77566 -0.558033,0.9654 v 0.70868 h 0.558033 c 0.189727,0 0.373879,0.0167 0.558029,0.0445 v 1.62946 h 2.645069 c 0.440843,0.63057 0.703117,1.39507 0.703117,2.23212 h 0.558033 c 0.306916,0 0.55803,0.25111 0.55803,0.55804 m -7.254404,0.279 c 0,-0.77008 -0.624996,-1.39507 -1.395078,-1.39507 -0.770082,0 -1.395077,0.62499 -1.395077,1.39507 0,0.77009 0.624995,1.39509 1.395077,1.39509 0.770082,0 1.395078,-0.625 1.395078,-1.39509 m 5.022281,0 c 0,-0.77008 -0.624996,-1.39507 -1.395079,-1.39507 -0.770082,0 -1.395076,0.62499 -1.395076,1.39507 0,0.77009 0.624994,1.39509 1.395076,1.39509 0.770083,0 1.395079,-0.625 1.395079,-1.39509 m -1.116063,-4.18521 h -0.558032 v 0.55803 h 0.558032 z"
       id="path1-3"
       style="fill:#660000;fill-opacity:1;stroke-width:0.55803" /><rect
       width="20.140924"
       x="0.26458299"
       y="291.7352"
       rx="8.4803324"
       height="19.080936"
       style="fill:#fdd583;stroke-width:4.00649"
       id="rect4152" /><rect
       width="20.172935"
       x="-50.495411"
       y="291.71558"
       rx="8.4938116"
       height="19.111265"
       style="display:inline;fill:#fdd583;stroke-width:4.01286"
       id="rect4152-7"
       transform="scale(-1,1)" /><path
       inkscape:connector-curvature="0"
       style="fill:#8f5315;stroke-width:4.00649"
       id="path4233"
       d="m 9.2058515,301.27566 a 3.3587098,4.5935051 0 0 0 2.8257095,2.12003 3.3587098,4.5935051 0 0 0 2.828993,-2.12003 h -0.329656 a 3.3587092,4.240176 0 0 1 -2.499353,1.41337 3.3587092,4.240176 0 0 1 -2.4977131,-1.41337 H 9.2058455 Z" /><path
       inkscape:connector-curvature="0"
       style="display:inline;fill:#8f5315;stroke-width:4.01286"
       id="path4233-5"
       d="m 41.53993,301.2712 a 3.3640482,4.6008061 0 0 1 -2.830201,2.12339 3.3640482,4.6008061 0 0 1 -2.83349,-2.12339 h 0.330181 a 3.3640476,4.2469153 0 0 0 2.503326,1.41561 3.3640476,4.2469153 0 0 0 2.501682,-1.41561 h 0.328508 z" /><path
       inkscape:connector-curvature="0"
       style="fill:#8f5315;stroke-width:4.00649"
       id="path4184"
       d="m 7.1549033,297.0354 a 1.5900741,1.5900741 0 0 0 -1.5900738,1.59009 1.5900741,1.5900741 0 0 0 0.093167,0.53002 1.5900741,1.5900741 0 0 1 1.4969055,-1.06008 1.5900741,1.5900741 0 0 1 1.4969056,1.06008 1.5900741,1.5900741 0 0 0 0.093167,-0.53002 1.5900741,1.5900741 0 0 0 -1.5900713,-1.59009 z" /><path
       inkscape:connector-curvature="0"
       style="display:inline;fill:#8f5315;stroke-width:4.01286"
       id="path4184-3"
       d="m 43.594137,297.02419 a 1.5926013,1.5926013 0 0 1 1.592601,1.59262 1.5926013,1.5926013 0 0 1 -0.09331,0.53087 1.5926013,1.5926013 0 0 0 -1.499285,-1.06177 1.5926013,1.5926013 0 0 0 -1.499284,1.06177 1.5926013,1.5926013 0 0 1 -0.09331,-0.53087 1.5926013,1.5926013 0 0 1 1.592597,-1.59262 z" /><path
       inkscape:connector-curvature="0"
       style="fill:#8f5315;stroke-width:4.00649"
       id="path4231"
       d="m 16.69535,297.03544 a 1.5900741,1.5900741 0 0 0 -1.590075,1.59005 1.5900741,1.5900741 0 0 0 0.09316,0.53002 1.5900741,1.5900741 0 0 1 1.496905,-1.06004 1.5900741,1.5900741 0 0 1 1.496905,1.06004 1.5900741,1.5900741 0 0 0 0.09316,-0.53002 1.5900741,1.5900741 0 0 0 -1.59007,-1.59005 z" /><path
       inkscape:connector-curvature="0"
       style="display:inline;fill:#8f5315;stroke-width:4.01286"
       id="path4231-5"
       d="m 34.038528,297.02423 a 1.5926013,1.5926013 0 0 1 1.592602,1.59258 1.5926013,1.5926013 0 0 1 -0.09331,0.53087 1.5926013,1.5926013 0 0 0 -1.499284,-1.06173 1.5926013,1.5926013 0 0 0 -1.499285,1.06173 1.5926013,1.5926013 0 0 1 -0.09331,-0.53087 1.5926013,1.5926013 0 0 1 1.592596,-1.59258 z" /><path
       inkscape:connector-curvature="0"
       style="fill:#8f5315;stroke-width:4.00649"
       id="path4249"
       d="m 5.5358445,302.97753 c 3.9138576,3.29254 -2.8313252,3.93887 -0.5010391,4.65843 2.6501236,0 3.7101836,-1.24197 3.7101728,-2.12016 -4.4e-6,-0.35697 -2.1200983,-3.18006 -3.2091337,-2.53827 z" /><path
       inkscape:connector-curvature="0"
       style="display:inline;fill:#8f5315;stroke-width:4.01286"
       id="path4249-6"
       d="m 45.21577,302.97577 c -3.920079,3.29777 2.835826,3.94513 0.501836,4.66583 -2.654337,0 -3.716081,-1.24394 -3.71607,-2.12351 4e-6,-0.35755 2.123467,-3.18513 3.214234,-2.54232 z" /></g></svg>
